<svg width="1584" height="396" viewBox="0 0 1584 396" fill="none" xmlns="http://www.w3.org/2000/svg">
<rect width="1584" height="396" fill="#F5F5F5"/>
<g id="Awesome banner" clip-path="url(#clip0_0_1)">
<rect width="1584" height="396" fill="url(#paint0_linear_0_1)"/>
<ellipse id="Ellipse 2" cx="323" cy="64" rx="285" ry="288" fill="url(#paint1_linear_0_1)" fill-opacity="0.1"/>
<g id="copyright">
<path d="M75.95 334.52L72.30 334.52L72.30 311.16L77.20 311.16L83.70 330.04Q83.60 329.02 83.50 327.62Q83.41 326.23 83.33 324.79Q83.25 323.35 83.25 322.23L83.25 311.16L86.90 311.16L86.90 334.52L82 334.52L75.57 315.64Q75.63 316.57 75.73 317.88Q75.82 319.19 75.89 320.57Q75.95 321.94 75.95 323.10L75.95 334.52M98.80 334.84Q96.46 334.84 94.67 333.96Q92.88 333.08 91.89 331.53Q90.90 329.98 90.90 327.93Q90.90 325.78 92.13 324.18Q93.36 322.58 95.34 322.17L95.34 322.10Q93.65 321.75 92.61 320.38Q91.57 319 91.57 317.11Q91.57 315.26 92.48 313.85Q93.39 312.44 95.02 311.64Q96.66 310.84 98.80 310.84Q100.94 310.84 102.59 311.64Q104.24 312.44 105.15 313.85Q106.06 315.26 106.06 317.11Q106.06 319 105.01 320.38Q103.95 321.75 102.26 322.10L102.26 322.17Q104.24 322.58 105.47 324.18Q106.70 325.78 106.70 327.93Q106.70 329.98 105.71 331.53Q104.72 333.08 102.93 333.96Q101.14 334.84 98.80 334.84M98.80 320.73Q100.30 320.73 101.23 319.82Q102.16 318.90 102.16 317.46Q102.16 315.99 101.23 315.08Q100.30 314.17 98.80 314.17Q97.30 314.17 96.37 315.08Q95.44 315.99 95.44 317.46Q95.44 318.90 96.37 319.82Q97.30 320.73 98.80 320.73M98.80 331.45Q100.56 331.45 101.68 330.42Q102.80 329.40 102.80 327.74Q102.80 326.04 101.68 325Q100.56 323.96 98.80 323.96Q97.04 323.96 95.92 325Q94.80 326.04 94.80 327.74Q94.80 329.40 95.92 330.42Q97.04 331.45 98.80 331.45M114.35 334.52L110.70 334.52L110.70 311.16L115.60 311.16L122.10 330.04Q122 329.02 121.90 327.62Q121.81 326.23 121.73 324.79Q121.65 323.35 121.65 322.23L121.65 311.16L125.30 311.16L125.30 334.52L120.40 334.52L113.97 315.64Q114.03 316.57 114.13 317.88Q114.22 319.19 114.29 320.57Q114.35 321.94 114.35 323.10" fill="white" fill-opacity="0.9"/>
<path d="M161.48 325.24L151.24 325.24L151.24 322.68L161.48 322.68" fill="white" fill-opacity="0.9"/>
<path d="M195.02 334.84Q191.82 334.84 189.96 333.05Q188.11 331.26 188.11 328.12L188.11 317.56Q188.11 314.42 189.96 312.63Q191.82 310.84 195.02 310.84Q198.15 310.84 200.01 312.65Q201.87 314.46 201.87 317.56L198.99 317.56Q198.99 315.58 197.95 314.50Q196.91 313.43 195.02 313.43Q193.13 313.43 192.06 314.50Q190.99 315.58 190.99 317.56L190.99 328.12Q190.99 330.10 192.06 331.18Q193.13 332.25 195.02 332.25Q196.91 332.25 197.95 331.18Q198.99 330.10 198.99 328.12L201.87 328.12Q201.87 331.22 200.01 333.03Q198.15 334.84 195.02 334.84" fill="white" fill-opacity="0.9"/>
<path d="M213.96 334.84Q210.83 334.84 209 333.02Q207.18 331.19 207.18 327.80L207.18 317.88Q207.18 314.49 209 312.66Q210.83 310.84 213.96 310.84Q217.10 310.84 218.92 312.66Q220.75 314.49 220.75 317.85L220.75 327.80Q220.75 331.19 218.92 333.02Q217.10 334.84 213.96 334.84M213.96 332.25Q215.85 332.25 216.86 331.18Q217.87 330.10 217.87 328.12L217.87 317.56Q217.87 315.58 216.86 314.50Q215.85 313.43 213.96 313.43Q212.11 313.43 211.08 314.50Q210.06 315.58 210.06 317.56L210.06 328.12Q210.06 330.10 211.08 331.18Q212.11 332.25 213.96 332.25" fill="white" fill-opacity="0.9"/>
<path d="M228.65 334.52L225.87 334.52L225.87 311.16L230.12 311.16L233.10 321.27L236.20 311.16L240.46 311.16L240.46 334.52L237.67 334.52L237.67 323.48Q237.67 321.91 237.72 319.88Q237.77 317.85 237.87 315.77Q237.96 313.69 238.09 312.02L234.31 324.09L231.82 324.09L228.20 312.31Q228.46 314.68 228.55 317.50Q228.65 320.31 228.65 323.48" fill="white" fill-opacity="0.9"/>
<path d="M247.85 334.52L245.07 334.52L245.07 311.16L249.32 311.16L252.30 321.27L255.40 311.16L259.66 311.16L259.66 334.52L256.87 334.52L256.87 323.48Q256.87 321.91 256.92 319.88Q256.97 317.85 257.07 315.77Q257.16 313.69 257.29 312.02L253.51 324.09L251.02 324.09L247.40 312.31Q247.66 314.68 247.75 317.50Q247.85 320.31 247.85 323.48" fill="white" fill-opacity="0.9"/>
<path d="M271.56 334.84Q268.30 334.84 266.57 333.03Q264.84 331.22 264.84 328.12L264.84 311.16L267.72 311.16L267.72 328.12Q267.72 330.04 268.67 331.16Q269.61 332.28 271.56 332.28Q273.48 332.28 274.44 331.16Q275.40 330.04 275.40 328.12L275.40 311.16L278.28 311.16L278.28 328.12Q278.28 331.26 276.57 333.05Q274.86 334.84 271.56 334.84" fill="white" fill-opacity="0.9"/>
<path d="M286.83 334.52L284.04 334.52L284.04 311.16L287.88 311.16L295.02 331.16Q294.95 330.36 294.87 329.19Q294.79 328.02 294.75 326.73Q294.70 325.43 294.70 324.28L294.70 311.16L297.48 311.16L297.48 334.52L293.64 334.52L286.54 314.52Q286.60 315.29 286.67 316.46Q286.73 317.62 286.78 318.92Q286.83 320.22 286.83 321.40" fill="white" fill-opacity="0.9"/>
<path d="M316.20 334.52L303.72 334.52L303.72 331.90L308.49 331.90L308.49 313.78L303.72 313.78L303.72 311.16L316.20 311.16L316.20 313.78L311.43 313.78L311.43 331.90L316.20 331.90" fill="white" fill-opacity="0.9"/>
<path d="M330.60 334.52L327.72 334.52L327.72 313.78L321.32 313.78L321.32 311.16L337 311.16L337 313.78L330.60 313.78" fill="white" fill-opacity="0.9"/>
<path d="M349.80 334.52L346.92 334.52L346.92 325.78L339.88 311.16L342.95 311.16L347.50 320.76Q347.88 321.56 348.11 322.12Q348.33 322.68 348.39 322.94Q348.46 322.68 348.70 322.12Q348.94 321.56 349.32 320.76L353.87 311.16L356.84 311.16L349.80 325.78" fill="white" fill-opacity="0.9"/>
<path d="M382.83 334.52L380.04 334.52L380.04 311.16L383.88 311.16L391.02 331.16Q390.95 330.36 390.87 329.19Q390.79 328.02 390.75 326.73Q390.70 325.43 390.70 324.28L390.70 311.16L393.48 311.16L393.48 334.52L389.64 334.52L382.54 314.52Q382.60 315.29 382.67 316.46Q382.73 317.62 382.78 318.92Q382.83 320.22 382.83 321.40" fill="white" fill-opacity="0.9"/>
<path d="M405.96 334.84Q402.83 334.84 401 333.02Q399.18 331.19 399.18 327.80L399.18 317.88Q399.18 314.49 401 312.66Q402.83 310.84 405.96 310.84Q409.10 310.84 410.92 312.66Q412.75 314.49 412.75 317.85L412.75 327.80Q412.75 331.19 410.92 333.02Q409.10 334.84 405.96 334.84M405.96 332.25Q407.85 332.25 408.86 331.18Q409.87 330.10 409.87 328.12L409.87 317.56Q409.87 315.58 408.86 314.50Q407.85 313.43 405.96 313.43Q404.11 313.43 403.08 314.50Q402.06 315.58 402.06 317.56L402.06 328.12Q402.06 330.10 403.08 331.18Q404.11 332.25 405.96 332.25" fill="white" fill-opacity="0.9"/>
<path d="M424.55 334.52L418.51 334.52L418.51 311.16L424.55 311.16Q426.83 311.16 428.47 312.02Q430.12 312.89 431.03 314.46Q431.95 316.02 431.95 318.17L431.95 327.48Q431.95 329.62 431.03 331.21Q430.12 332.79 428.47 333.66Q426.83 334.52 424.55 334.52M421.39 313.72L421.39 331.96L424.55 331.96Q426.67 331.96 427.87 330.78Q429.07 329.59 429.07 327.48L429.07 318.17Q429.07 316.09 427.87 314.90Q426.67 313.72 424.55 313.72" fill="white" fill-opacity="0.9"/>
<path d="M451.40 334.52L437.96 334.52L437.96 311.16L451.40 311.16L451.40 313.78L440.81 313.78L440.81 321.02L450.28 321.02L450.28 323.58L440.81 323.58L440.81 331.90L451.40 331.90" fill="white" fill-opacity="0.9"/>
<path d="M463.69 334.84Q460.30 334.84 458.28 333.05Q456.27 331.26 456.27 328.12L459.15 328.12Q459.15 330.07 460.39 331.18Q461.64 332.28 463.69 332.28Q465.67 332.28 466.86 331.13Q468.04 329.98 468.04 328.12Q468.04 326.71 467.29 325.67Q466.54 324.63 465.13 324.25L461.58 323.26Q459.37 322.62 458.11 320.97Q456.84 319.32 456.84 317.08Q456.84 315.22 457.67 313.82Q458.51 312.41 460.01 311.62Q461.51 310.84 463.47 310.84Q465.45 310.84 466.97 311.62Q468.49 312.41 469.35 313.80Q470.22 315.19 470.22 317.02L467.34 317.02Q467.34 315.42 466.25 314.41Q465.16 313.40 463.47 313.40Q461.77 313.40 460.71 314.41Q459.66 315.42 459.66 317.02Q459.66 318.30 460.35 319.21Q461.03 320.12 462.28 320.47L465.93 321.50Q468.27 322.14 469.56 323.91Q470.86 325.69 470.86 328.12Q470.86 331.19 468.91 333.02Q466.95 334.84 463.69 334.84" fill="white" fill-opacity="0.9"/>
</g>
<path d="M77.30 197.88Q74.90 197.88 73.50 196.54Q72.11 195.19 72.11 192.84L72.11 184.92Q72.11 182.57 73.50 181.22Q74.90 179.88 77.30 179.88Q79.65 179.88 81.04 181.24Q82.43 182.59 82.43 184.92L80.27 184.92Q80.27 183.43 79.49 182.63Q78.71 181.82 77.30 181.82Q75.88 181.82 75.08 182.62Q74.27 183.41 74.27 184.90L74.27 192.84Q74.27 194.33 75.08 195.14Q75.88 195.96 77.30 195.96Q78.71 195.96 79.49 195.14Q80.27 194.33 80.27 192.84L80.27 190.44L76.72 190.44L76.72 188.47L82.43 188.47L82.43 192.84Q82.43 195.17 81.04 196.52Q79.65 197.88 77.30 197.88" fill="white" fill-opacity="0.7"/>
<path d="M91.60 197.88Q89.27 197.88 87.84 196.48Q86.42 195.07 86.42 192.60L86.42 189.48Q86.42 187.01 87.84 185.60Q89.27 184.20 91.60 184.20Q93.16 184.20 94.32 184.82Q95.49 185.45 96.14 186.58Q96.78 187.70 96.78 189.24L96.78 191.59L88.53 191.59L88.53 192.84Q88.53 194.30 89.37 195.16Q90.21 196.01 91.60 196.01Q92.80 196.01 93.58 195.54Q94.36 195.07 94.53 194.28L96.69 194.28Q96.47 195.94 95.08 196.91Q93.69 197.88 91.60 197.88M88.53 189.24L88.53 189.91L94.67 189.91L94.67 189.24Q94.67 187.68 93.87 186.83Q93.06 185.98 91.60 185.98Q90.14 185.98 89.33 186.83Q88.53 187.68 88.53 189.24" fill="white" fill-opacity="0.7"/>
<path d="M103.17 197.64L101.01 197.64L101.01 184.44L103.17 184.44L103.17 186.96L103.19 186.96Q103.36 185.64 104.27 184.92Q105.18 184.20 106.70 184.20Q108.69 184.20 109.86 185.42Q111.04 186.65 111.04 188.76L111.04 197.64L108.88 197.64L108.88 189.14Q108.88 187.63 108.12 186.83Q107.37 186.02 106.07 186.02Q104.73 186.02 103.95 186.86Q103.17 187.70 103.17 189.24" fill="white" fill-opacity="0.7"/>
<path d="M120.40 197.88Q118.07 197.88 116.64 196.48Q115.22 195.07 115.22 192.60L115.22 189.48Q115.22 187.01 116.64 185.60Q118.07 184.20 120.40 184.20Q121.96 184.20 123.12 184.82Q124.29 185.45 124.94 186.58Q125.58 187.70 125.58 189.24L125.58 191.59L117.33 191.59L117.33 192.84Q117.33 194.30 118.17 195.16Q119.01 196.01 120.40 196.01Q121.60 196.01 122.38 195.54Q123.16 195.07 123.33 194.28L125.49 194.28Q125.27 195.94 123.88 196.91Q122.49 197.88 120.40 197.88M117.33 189.24L117.33 189.91L123.47 189.91L123.47 189.24Q123.47 187.68 122.67 186.83Q121.86 185.98 120.40 185.98Q118.94 185.98 118.13 186.83Q117.33 187.68 117.33 189.24" fill="white" fill-opacity="0.7"/>
<path d="M132.45 197.64L130.29 197.64L130.29 184.44L132.45 184.44L132.45 186.96L132.50 186.96Q132.66 185.69 133.58 184.94Q134.49 184.20 136.02 184.20Q138.09 184.20 139.20 185.44Q140.32 186.67 140.32 188.95L140.32 190.08L138.16 190.08L138.16 188.95Q138.16 186.07 135.35 186.07Q133.94 186.07 133.19 186.89Q132.45 187.70 132.45 189.24" fill="white" fill-opacity="0.7"/>
<path d="M148.05 197.88Q146.01 197.88 144.81 196.74Q143.61 195.60 143.61 193.75Q143.61 192.53 144.16 191.62Q144.71 190.70 145.70 190.19Q146.68 189.67 147.95 189.67L152.03 189.67L152.03 188.64Q152.03 186.07 149.22 186.07Q147.98 186.07 147.21 186.53Q146.44 186.98 146.39 187.80L144.23 187.80Q144.35 186.24 145.68 185.22Q147.02 184.20 149.22 184.20Q151.62 184.20 152.91 185.35Q154.19 186.50 154.19 188.57L154.19 197.64L152.06 197.64L152.06 195.24L152.01 195.24Q151.82 196.46 150.78 197.17Q149.75 197.88 148.05 197.88M148.58 196.06Q150.16 196.06 151.10 195.29Q152.03 194.52 152.03 193.20L152.03 191.35L148.19 191.35Q147.14 191.35 146.48 191.99Q145.82 192.62 145.82 193.68Q145.82 194.78 146.55 195.42Q147.28 196.06 148.58 196.06" fill="white" fill-opacity="0.7"/>
<path d="M168.76 197.64L164.92 197.64Q163.29 197.64 162.30 196.69Q161.32 195.74 161.32 194.16L161.32 186.41L157.53 186.41L157.53 184.44L161.32 184.44L161.32 180.72L163.48 180.72L163.48 184.44L168.88 184.44L168.88 186.41L163.48 186.41L163.48 194.16Q163.48 194.83 163.88 195.25Q164.27 195.67 164.92 195.67L168.76 195.67" fill="white" fill-opacity="0.7"/>
<path d="MNaN 197.88Q175.67 197.88 174.24 196.48Q172.82 195.07 172.82 192.60L172.82 189.48Q172.82 187.01 174.24 185.60Q175.67 184.20 NaN 184.20Q179.56 184.20 180.72 184.82Q181.89 185.45 182.54 186.58Q183.18 187.70 183.18 189.24L183.18 191.59L174.93 191.59L174.93 192.84Q174.93 194.30 175.77 195.16Q176.61 196.01 NaN 196.01Q179.20 196.01 179.98 195.54Q180.76 195.07 180.93 194.28L183.09 194.28Q182.87 195.94 181.48 196.91Q180.09 197.88 NaN 197.88M174.93 189.24L174.93 189.91L181.07 189.91L181.07 189.24Q181.07 187.68 180.27 186.83Q179.46 185.98 NaN 185.98Q176.54 185.98 175.73 186.83Q174.93 187.68 174.93 189.24" fill="white" fill-opacity="0.7"/>
<path d="M205.65 197.88Q203.61 197.88 202.41 196.74Q201.21 195.60 201.21 193.75Q201.21 192.53 201.76 191.62Q202.31 190.70 203.30 190.19Q204.28 189.67 205.55 189.67L209.63 189.67L209.63 188.64Q209.63 186.07 206.82 186.07Q205.58 186.07 204.81 186.53Q204.04 186.98 203.99 187.80L201.83 187.80Q201.95 186.24 203.28 185.22Q204.62 184.20 206.82 184.20Q209.22 184.20 210.51 185.35Q211.79 186.50 211.79 188.57L211.79 197.64L209.66 197.64L209.66 195.24L209.61 195.24Q209.42 196.46 208.38 197.17Q207.35 197.88 205.65 197.88M206.18 196.06Q207.76 196.06 208.70 195.29Q209.63 194.52 209.63 193.20L209.63 191.35L205.79 191.35Q204.74 191.35 204.08 191.99Q203.42 192.62 203.42 193.68Q203.42 194.78 204.15 195.42Q204.88 196.06 206.18 196.06" fill="white" fill-opacity="0.7"/>
<path d="M218.37 197.64L216.21 197.64L216.21 184.44L218.37 184.44L218.37 186.96L218.39 186.96Q218.56 185.64 219.47 184.92Q220.38 184.20 221.90 184.20Q223.89 184.20 225.06 185.42Q226.24 186.65 226.24 188.76L226.24 197.64L224.08 197.64L224.08 189.14Q224.08 187.63 223.32 186.83Q222.57 186.02 221.27 186.02Q219.93 186.02 219.15 186.86Q218.37 187.70 218.37 189.24" fill="white" fill-opacity="0.7"/>
<path d="M234.83 197.88Q232.86 197.88 231.68 196.56Q230.49 195.24 230.49 192.98L230.49 189.12Q230.49 186.84 231.66 185.52Q232.84 184.20 234.83 184.20Q236.32 184.20 237.29 184.94Q238.26 185.69 238.46 186.96L238.48 186.96L238.43 183.96L238.43 180.12L240.59 180.12L240.59 197.64L238.43 197.64L238.43 195.12L238.41 195.12Q238.24 196.42 237.28 197.15Q236.32 197.88 234.83 197.88M235.55 196.01Q236.90 196.01 237.66 195.17Q238.43 194.33 238.43 192.84L238.43 189.24Q238.43 187.75 237.66 186.91Q236.90 186.07 235.55 186.07Q234.18 186.07 233.42 186.78Q232.65 187.49 232.65 189.12L232.65 192.96Q232.65 194.57 233.42 195.29Q234.18 196.01 235.55 196.01" fill="white" fill-opacity="0.7"/>
<path d="M263.63 197.88Q261.66 197.88 260.48 196.56Q259.29 195.24 259.29 192.98L259.29 189.12Q259.29 186.84 260.46 185.52Q261.64 184.20 263.63 184.20Q265.12 184.20 266.09 184.94Q267.06 185.69 267.26 186.96L267.28 186.96L267.23 183.96L267.23 180.12L269.39 180.12L269.39 197.64L267.23 197.64L267.23 195.12L267.21 195.12Q267.04 196.42 266.08 197.15Q265.12 197.88 263.63 197.88M264.35 196.01Q265.70 196.01 266.46 195.17Q267.23 194.33 267.23 192.84L267.23 189.24Q267.23 187.75 266.46 186.91Q265.70 186.07 264.35 186.07Q262.98 186.07 262.22 186.78Q261.45 187.49 261.45 189.12L261.45 192.96Q261.45 194.57 262.22 195.29Q262.98 196.01 264.35 196.01" fill="white" fill-opacity="0.7"/>
<path d="M278.80 197.88Q276.47 197.88 275.04 196.48Q273.62 195.07 273.62 192.60L273.62 189.48Q273.62 187.01 275.04 185.60Q276.47 184.20 278.80 184.20Q280.36 184.20 281.52 184.82Q282.69 185.45 283.34 186.58Q283.98 187.70 283.98 189.24L283.98 191.59L275.73 191.59L275.73 192.84Q275.73 194.30 276.57 195.16Q277.41 196.01 278.80 196.01Q280 196.01 280.78 195.54Q281.56 195.07 281.73 194.28L283.89 194.28Q283.67 195.94 282.28 196.91Q280.89 197.88 278.80 197.88M275.73 189.24L275.73 189.91L281.87 189.91L281.87 189.24Q281.87 187.68 281.07 186.83Q280.26 185.98 278.80 185.98Q277.34 185.98 276.53 186.83Q275.73 187.68 275.73 189.24" fill="white" fill-opacity="0.7"/>
<path d="M293.39 197.88Q290.99 197.88 289.55 196.54Q288.11 195.19 288.11 192.84L288.11 189.24Q288.11 186.89 289.55 185.54Q290.99 184.20 293.39 184.20Q295.67 184.20 297.08 185.42Q298.48 186.65 298.55 188.76L296.39 188.76Q296.32 187.49 295.53 186.80Q294.74 186.12 293.39 186.12Q291.98 186.12 291.12 186.92Q290.27 187.73 290.27 189.22L290.27 192.84Q290.27 194.33 291.12 195.14Q291.98 195.96 293.39 195.96Q294.74 195.96 295.53 195.26Q296.32 194.57 296.39 193.32L298.55 193.32Q298.48 195.43 297.08 196.66Q295.67 197.88 293.39 197.88" fill="white" fill-opacity="0.7"/>
<path d="M307.60 197.83Q305.22 197.83 303.82 196.44Q302.42 195.05 302.42 192.55L302.42 189.53Q302.42 187.01 303.81 185.63Q305.20 184.25 307.60 184.25Q310 184.25 311.39 185.63Q312.78 187.01 312.78 189.53L312.78 192.55Q312.78 195.05 311.38 196.44Q309.98 197.83 307.60 197.83M307.60 195.91Q309.02 195.91 309.82 195.12Q310.62 194.33 310.62 192.79L310.62 189.29Q310.62 187.75 309.82 186.96Q309.02 186.17 307.60 186.17Q306.21 186.17 305.39 186.96Q304.58 187.75 304.58 189.29L304.58 192.79Q304.58 194.33 305.39 195.12Q306.21 195.91 307.60 195.91" fill="white" fill-opacity="0.7"/>
<path d="M321.23 197.88Q319.26 197.88 318.08 196.56Q316.89 195.24 316.89 192.98L316.89 189.12Q316.89 186.84 318.06 185.52Q319.24 184.20 321.23 184.20Q322.72 184.20 323.69 184.94Q324.66 185.69 324.86 186.96L324.88 186.96L324.83 183.96L324.83 180.12L326.99 180.12L326.99 197.64L324.83 197.64L324.83 195.12L324.81 195.12Q324.64 196.42 323.68 197.15Q322.72 197.88 321.23 197.88M321.95 196.01Q323.30 196.01 324.06 195.17Q324.83 194.33 324.83 192.84L324.83 189.24Q324.83 187.75 324.06 186.91Q323.30 186.07 321.95 186.07Q320.58 186.07 319.82 186.78Q319.05 187.49 319.05 189.12L319.05 192.96Q319.05 194.57 319.82 195.29Q320.58 196.01 321.95 196.01" fill="white" fill-opacity="0.7"/>
<path d="M336.40 197.88Q334.07 197.88 332.64 196.48Q331.22 195.07 331.22 192.60L331.22 189.48Q331.22 187.01 332.64 185.60Q334.07 184.20 336.40 184.20Q337.96 184.20 339.12 184.82Q340.29 185.45 340.94 186.58Q341.58 187.70 341.58 189.24L341.58 191.59L333.33 191.59L333.33 192.84Q333.33 194.30 334.17 195.16Q335.01 196.01 336.40 196.01Q337.60 196.01 338.38 195.54Q339.16 195.07 339.33 194.28L341.49 194.28Q341.27 195.94 339.88 196.91Q338.49 197.88 336.40 197.88M333.33 189.24L333.33 189.91L339.47 189.91L339.47 189.24Q339.47 187.68 338.67 186.83Q337.86 185.98 336.40 185.98Q334.94 185.98 334.13 186.83Q333.33 187.68 333.33 189.24" fill="white" fill-opacity="0.7"/>
<path d="M365.97 197.88Q364.48 197.88 363.52 197.15Q362.56 196.42 362.39 195.12L362.37 195.12L362.37 197.64L360.21 197.64L360.21 180.12L362.37 180.12L362.37 183.96L362.32 186.96L362.34 186.96Q362.54 185.69 363.51 184.94Q364.48 184.20 365.97 184.20Q367.96 184.20 369.14 185.52Q370.31 186.84 370.31 189.12L370.31 192.98Q370.31 195.24 369.14 196.56Q367.96 197.88 365.97 197.88M365.25 196.01Q366.62 196.01 367.38 195.29Q368.15 194.57 368.15 192.96L368.15 189.12Q368.15 187.49 367.38 186.78Q366.62 186.07 365.25 186.07Q363.93 186.07 363.15 186.91Q362.37 187.75 362.37 189.24L362.37 192.84Q362.37 194.33 363.15 195.17Q363.93 196.01 365.25 196.01" fill="white" fill-opacity="0.7"/>
<path d="M378.45 197.88Q376.41 197.88 375.21 196.74Q374.01 195.60 374.01 193.75Q374.01 192.53 374.56 191.62Q375.11 190.70 376.10 190.19Q377.08 189.67 378.35 189.67L382.43 189.67L382.43 188.64Q382.43 186.07 379.62 186.07Q378.38 186.07 377.61 186.53Q376.84 186.98 376.79 187.80L374.63 187.80Q374.75 186.24 376.08 185.22Q377.42 184.20 379.62 184.20Q382.02 184.20 383.31 185.35Q384.59 186.50 384.59 188.57L384.59 197.64L382.46 197.64L382.46 195.24L382.41 195.24Q382.22 196.46 381.18 197.17Q380.15 197.88 378.45 197.88M378.98 196.06Q380.56 196.06 381.50 195.29Q382.43 194.52 382.43 193.20L382.43 191.35L378.59 191.35Q377.54 191.35 376.88 191.99Q376.22 192.62 376.22 193.68Q376.22 194.78 376.95 195.42Q377.68 196.06 378.98 196.06" fill="white" fill-opacity="0.7"/>
<path d="M391.65 197.64L389.49 197.64L389.49 184.44L391.65 184.44L391.65 186.96L391.70 186.96Q391.86 185.69 392.78 184.94Q393.69 184.20 395.22 184.20Q397.29 184.20 398.40 185.44Q399.52 186.67 399.52 188.95L399.52 190.08L397.36 190.08L397.36 188.95Q397.36 186.07 394.55 186.07Q393.14 186.07 392.39 186.89Q391.65 187.70 391.65 189.24" fill="white" fill-opacity="0.7"/>
<path d="M408.59 197.88Q406.19 197.88 404.75 196.54Q403.31 195.19 403.31 192.84L403.31 189.24Q403.31 186.89 404.75 185.54Q406.19 184.20 408.59 184.20Q410.87 184.20 412.28 185.42Q413.68 186.65 413.75 188.76L411.59 188.76Q411.52 187.49 410.73 186.80Q409.94 186.12 408.59 186.12Q407.18 186.12 406.32 186.92Q405.47 187.73 405.47 189.22L405.47 192.84Q405.47 194.33 406.32 195.14Q407.18 195.96 408.59 195.96Q409.94 195.96 410.73 195.26Q411.52 194.57 411.59 193.32L413.75 193.32Q413.68 195.43 412.28 196.66Q410.87 197.88 408.59 197.88" fill="white" fill-opacity="0.7"/>
<path d="M422.80 197.83Q420.42 197.83 419.02 196.44Q417.62 195.05 417.62 192.55L417.62 189.53Q417.62 187.01 419.01 185.63Q420.40 184.25 422.80 184.25Q425.20 184.25 426.59 185.63Q427.98 187.01 427.98 189.53L427.98 192.55Q427.98 195.05 426.58 196.44Q425.18 197.83 422.80 197.83M422.80 195.91Q424.22 195.91 425.02 195.12Q425.82 194.33 425.82 192.79L425.82 189.29Q425.82 187.75 425.02 186.96Q424.22 186.17 422.80 186.17Q421.41 186.17 420.59 186.96Q419.78 187.75 419.78 189.29L419.78 192.79Q419.78 194.33 420.59 195.12Q421.41 195.91 422.80 195.91" fill="white" fill-opacity="0.7"/>
<path d="M436.43 197.88Q434.46 197.88 433.28 196.56Q432.09 195.24 432.09 192.98L432.09 189.12Q432.09 186.84 433.26 185.52Q434.44 184.20 436.43 184.20Q437.92 184.20 438.89 184.94Q439.86 185.69 440.06 186.96L440.08 186.96L440.03 183.96L440.03 180.12L442.19 180.12L442.19 197.64L440.03 197.64L440.03 195.12L440.01 195.12Q439.84 196.42 438.88 197.15Q437.92 197.88 436.43 197.88M437.15 196.01Q438.50 196.01 439.26 195.17Q440.03 194.33 440.03 192.84L440.03 189.24Q440.03 187.75 439.26 186.91Q438.50 186.07 437.15 186.07Q435.78 186.07 435.02 186.78Q434.25 187.49 434.25 189.12L434.25 192.96Q434.25 194.57 435.02 195.29Q435.78 196.01 437.15 196.01" fill="white" fill-opacity="0.7"/>
<path d="M451.60 197.88Q449.27 197.88 447.84 196.48Q446.42 195.07 446.42 192.60L446.42 189.48Q446.42 187.01 447.84 185.60Q449.27 184.20 451.60 184.20Q453.16 184.20 454.32 184.82Q455.49 185.45 456.14 186.58Q456.78 187.70 456.78 189.24L456.78 191.59L448.53 191.59L448.53 192.84Q448.53 194.30 449.37 195.16Q450.21 196.01 451.60 196.01Q452.80 196.01 453.58 195.54Q454.36 195.07 454.53 194.28L456.69 194.28Q456.47 195.94 455.08 196.91Q453.69 197.88 451.60 197.88M448.53 189.24L448.53 189.91L454.67 189.91L454.67 189.24Q454.67 187.68 453.87 186.83Q453.06 185.98 451.60 185.98Q450.14 185.98 449.33 186.83Q448.53 187.68 448.53 189.24" fill="white" fill-opacity="0.7"/>
<path d="M466.53 197.83L465.47 197.83Q463.26 197.83 462.05 196.84Q460.84 195.84 460.84 194.02L463 194.02Q463 194.93 463.65 195.44Q464.30 195.96 465.47 195.96L466.53 195.96Q467.73 195.96 468.39 195.43Q469.05 194.90 469.05 193.94Q469.05 192.24 467.49 192.02L463.84 191.50Q462.50 191.30 461.75 190.38Q461.01 189.46 461.01 187.94Q461.01 186.22 462.20 185.23Q463.38 184.25 465.47 184.25L466.53 184.25Q468.45 184.25 469.66 185.20Q470.87 186.14 470.97 187.68L468.78 187.68Q468.74 186.98 468.12 186.53Q467.51 186.07 466.53 186.07L465.47 186.07Q464.37 186.07 463.74 186.58Q463.12 187.08 463.12 187.94Q463.12 189.34 464.39 189.53L467.80 190.01Q471.16 190.49 471.16 193.94Q471.16 195.79 469.95 196.81Q468.74 197.83 466.53 197.83" fill="white" fill-opacity="0.7"/>
<path d="M500.92 197.64L489.64 197.64L489.64 195.67L494.32 195.67L494.32 186.41L490.12 186.41L490.12 184.44L496.48 184.44L496.48 195.67L500.92 195.67L500.92 197.64M495.16 182.06Q494.37 182.06 493.91 181.66Q493.46 181.25 493.46 180.55Q493.46 179.83 493.91 179.41Q494.37 178.99 495.16 178.99Q495.95 178.99 496.41 179.41Q496.86 179.83 496.86 180.55Q496.86 181.25 496.41 181.66Q495.95 182.06 495.16 182.06" fill="white" fill-opacity="0.7"/>
<path d="M506.37 197.64L504.21 197.64L504.21 184.44L506.37 184.44L506.37 186.96L506.39 186.96Q506.56 185.64 507.47 184.92Q508.38 184.20 509.90 184.20Q511.89 184.20 513.06 185.42Q514.24 186.65 514.24 188.76L514.24 197.64L512.08 197.64L512.08 189.14Q512.08 187.63 511.32 186.83Q510.57 186.02 509.27 186.02Q507.93 186.02 507.15 186.86Q506.37 187.70 506.37 189.24" fill="white" fill-opacity="0.7"/>
<path d="M534.26 197.64L532.24 197.64L532.24 184.44L534.11 184.44L534.11 186.19L534.16 186.19Q534.28 185.30 534.87 184.75Q535.46 184.20 536.37 184.20Q537.23 184.20 537.83 184.70Q538.43 185.21 538.70 186.07L538.72 186.07Q538.89 185.21 539.48 184.70Q540.06 184.20 540.98 184.20Q542.25 184.20 543 185.15Q543.76 186.10 543.76 187.61L543.76 197.64L541.74 197.64L541.74 187.58Q541.74 186.79 541.36 186.32Q540.98 185.86 540.30 185.86Q539.66 185.86 539.27 186.31Q538.89 186.77 538.89 187.56L538.89 197.64L537.11 197.64L537.11 187.58Q537.11 186.79 536.73 186.32Q536.34 185.86 535.70 185.86Q535.02 185.86 534.64 186.31Q534.26 186.77 534.26 187.56" fill="white" fill-opacity="0.7"/>
<path d="M552.38 197.88Q550.10 197.88 548.73 196.52Q547.36 195.17 547.36 192.84L547.36 184.44L549.52 184.44L549.52 192.84Q549.52 194.28 550.29 195.13Q551.06 195.98 552.38 195.98Q553.72 195.98 554.50 195.13Q555.28 194.28 555.28 192.84L555.28 184.44L557.44 184.44L557.44 192.84Q557.44 195.17 556.05 196.52Q554.66 197.88 552.38 197.88" fill="white" fill-opacity="0.7"/>
<path d="M572.80 197.64L568.72 197.64Q566.97 197.64 565.92 196.62Q564.88 195.60 564.88 193.92L564.88 182.09L560.32 182.09L560.32 180.12L567.04 180.12L567.04 193.92Q567.04 194.74 567.50 195.20Q567.95 195.67 568.72 195.67L572.80 195.67" fill="white" fill-opacity="0.7"/>
<path d="M586.36 197.64L582.52 197.64Q580.89 197.64 579.90 196.69Q578.92 195.74 578.92 194.16L578.92 186.41L575.13 186.41L575.13 184.44L578.92 184.44L578.92 180.72L581.08 180.72L581.08 184.44L586.48 184.44L586.48 186.41L581.08 186.41L581.08 194.16Q581.08 194.83 581.48 195.25Q581.87 195.67 582.52 195.67L586.36 195.67" fill="white" fill-opacity="0.7"/>
<path d="M601.72 197.64L590.44 197.64L590.44 195.67L595.12 195.67L595.12 186.41L590.92 186.41L590.92 184.44L597.28 184.44L597.28 195.67L601.72 195.67L601.72 197.64M595.96 182.06Q595.17 182.06 594.71 181.66Q594.26 181.25 594.26 180.55Q594.26 179.83 594.71 179.41Q595.17 178.99 595.96 178.99Q596.75 178.99 597.21 179.41Q597.66 179.83 597.66 180.55Q597.66 181.25 597.21 181.66Q596.75 182.06 595.96 182.06" fill="white" fill-opacity="0.7"/>
<path d="M607.17 201.96L605.01 201.96L605.01 184.44L607.17 184.44L607.17 186.96L607.19 186.96Q607.36 185.66 608.32 184.93Q609.28 184.20 610.77 184.20Q612.76 184.20 613.94 185.51Q615.11 186.82 615.11 189.10L615.11 192.96Q615.11 195.24 613.94 196.56Q612.76 197.88 610.77 197.88Q609.28 197.88 608.32 197.14Q607.36 196.39 607.19 195.12L607.12 195.12L607.17 198.12L607.17 201.96M610.05 196.01Q611.42 196.01 612.18 195.29Q612.95 194.57 612.95 192.96L612.95 189.12Q612.95 187.49 612.18 186.78Q611.42 186.07 610.05 186.07Q608.73 186.07 607.95 186.91Q607.17 187.75 607.17 189.24L607.17 192.84Q607.17 194.33 607.95 195.17Q608.73 196.01 610.05 196.01" fill="white" fill-opacity="0.7"/>
<path d="M630.40 197.64L626.32 197.64Q624.57 197.64 623.52 196.62Q622.48 195.60 622.48 193.92L622.48 182.09L617.92 182.09L617.92 180.12L624.64 180.12L624.64 193.92Q624.64 194.74 625.10 195.20Q625.55 195.67 626.32 195.67L630.40 195.67" fill="white" fill-opacity="0.7"/>
<path d="M638.80 197.88Q636.47 197.88 635.04 196.48Q633.62 195.07 633.62 192.60L633.62 189.48Q633.62 187.01 635.04 185.60Q636.47 184.20 638.80 184.20Q640.36 184.20 641.52 184.82Q642.69 185.45 643.34 186.58Q643.98 187.70 643.98 189.24L643.98 191.59L635.73 191.59L635.73 192.84Q635.73 194.30 636.57 195.16Q637.41 196.01 638.80 196.01Q640 196.01 640.78 195.54Q641.56 195.07 641.73 194.28L643.89 194.28Q643.67 195.94 642.28 196.91Q640.89 197.88 638.80 197.88M635.73 189.24L635.73 189.91L641.87 189.91L641.87 189.24Q641.87 187.68 641.07 186.83Q640.26 185.98 638.80 185.98Q637.34 185.98 636.53 186.83Q635.73 187.68 635.73 189.24" fill="white" fill-opacity="0.7"/>
<path d="M673.72 197.64L662.44 197.64L662.44 195.67L667.12 195.67L667.12 186.41L662.92 186.41L662.92 184.44L669.28 184.44L669.28 195.67L673.72 195.67L673.72 197.64M667.96 182.06Q667.17 182.06 666.71 181.66Q666.26 181.25 666.26 180.55Q666.26 179.83 666.71 179.41Q667.17 178.99 667.96 178.99Q668.75 178.99 669.21 179.41Q669.66 179.83 669.66 180.55Q669.66 181.25 669.21 181.66Q668.75 182.06 667.96 182.06" fill="white" fill-opacity="0.7"/>
<path d="M679.17 197.64L677.01 197.64L677.01 184.44L679.17 184.44L679.17 186.96L679.19 186.96Q679.36 185.64 680.27 184.92Q681.18 184.20 682.70 184.20Q684.69 184.20 685.86 185.42Q687.04 186.65 687.04 188.76L687.04 197.64L684.88 197.64L684.88 189.14Q684.88 187.63 684.12 186.83Q683.37 186.02 682.07 186.02Q680.73 186.02 679.95 186.86Q679.17 187.70 679.17 189.24" fill="white" fill-opacity="0.7"/>
<path d="M695.63 197.88Q693.66 197.88 692.48 196.56Q691.29 195.24 691.29 192.98L691.29 189.12Q691.29 186.84 692.46 185.52Q693.64 184.20 695.63 184.20Q697.12 184.20 698.09 184.94Q699.06 185.69 699.26 186.96L699.28 186.96L699.23 183.96L699.23 180.12L701.39 180.12L701.39 197.64L699.23 197.64L699.23 195.12L699.21 195.12Q699.04 196.42 698.08 197.15Q697.12 197.88 695.63 197.88M696.35 196.01Q697.70 196.01 698.46 195.17Q699.23 194.33 699.23 192.84L699.23 189.24Q699.23 187.75 698.46 186.91Q697.70 186.07 696.35 186.07Q694.98 186.07 694.22 186.78Q693.45 187.49 693.45 189.12L693.45 192.96Q693.45 194.57 694.22 195.29Q694.98 196.01 696.35 196.01" fill="white" fill-opacity="0.7"/>
<path d="M710.78 197.88Q708.50 197.88 707.13 196.52Q705.76 195.17 705.76 192.84L705.76 184.44L707.92 184.44L707.92 192.84Q707.92 194.28 708.69 195.13Q709.46 195.98 710.78 195.98Q712.12 195.98 712.90 195.13Q713.68 194.28 713.68 192.84L713.68 184.44L715.84 184.44L715.84 192.84Q715.84 195.17 714.45 196.52Q713.06 197.88 710.78 197.88" fill="white" fill-opacity="0.7"/>
<path d="M725.73 197.83L724.67 197.83Q722.46 197.83 721.25 196.84Q720.04 195.84 720.04 194.02L722.20 194.02Q722.20 194.93 722.85 195.44Q723.50 195.96 724.67 195.96L725.73 195.96Q726.93 195.96 727.59 195.43Q728.25 194.90 728.25 193.94Q728.25 192.24 726.69 192.02L723.04 191.50Q721.70 191.30 720.95 190.38Q720.21 189.46 720.21 187.94Q720.21 186.22 721.40 185.23Q722.58 184.25 724.67 184.25L725.73 184.25Q727.65 184.25 728.86 185.20Q730.07 186.14 730.17 187.68L727.98 187.68Q727.94 186.98 727.32 186.53Q726.71 186.07 725.73 186.07L724.67 186.07Q723.57 186.07 722.94 186.58Q722.32 187.08 722.32 187.94Q722.32 189.34 723.59 189.53L727 190.01Q730.36 190.49 730.36 193.94Q730.36 195.79 729.15 196.81Q727.94 197.83 725.73 197.83" fill="white" fill-opacity="0.7"/>
<path d="M744.76 197.64L740.92 197.64Q739.29 197.64 738.30 196.69Q737.32 195.74 737.32 194.16L737.32 186.41L733.53 186.41L733.53 184.44L737.32 184.44L737.32 180.72L739.48 180.72L739.48 184.44L744.88 184.44L744.88 186.41L739.48 186.41L739.48 194.16Q739.48 194.83 739.88 195.25Q740.27 195.67 740.92 195.67L744.76 195.67" fill="white" fill-opacity="0.7"/>
<path d="M751.65 197.64L749.49 197.64L749.49 184.44L751.65 184.44L751.65 186.96L751.70 186.96Q751.86 185.69 752.78 184.94Q753.69 184.20 755.22 184.20Q757.29 184.20 758.40 185.44Q759.52 186.67 759.52 188.95L759.52 190.08L757.36 190.08L757.36 188.95Q757.36 186.07 754.55 186.07Q753.14 186.07 752.39 186.89Q751.65 187.70 751.65 189.24" fill="white" fill-opacity="0.7"/>
<path d="M767.73 201.96L765.47 201.96L767.42 196.82L762.50 184.44L764.82 184.44L767.94 192.60Q768.14 193.08 768.30 193.61Q768.47 194.14 768.54 194.52Q768.62 194.14 768.78 193.61Q768.95 193.08 769.12 192.60L772.02 184.44L774.30 184.44" fill="white" fill-opacity="0.7"/>
<path d="M786.64 190.68L778.96 190.68L778.96 188.76L786.64 188.76" fill="white" fill-opacity="0.7"/>
<path d="M797.73 197.83L796.67 197.83Q794.46 197.83 793.25 196.84Q792.04 195.84 792.04 194.02L794.20 194.02Q794.20 194.93 794.85 195.44Q795.50 195.96 796.67 195.96L797.73 195.96Q798.93 195.96 799.59 195.43Q800.25 194.90 800.25 193.94Q800.25 192.24 798.69 192.02L795.04 191.50Q793.70 191.30 792.95 190.38Q792.21 189.46 792.21 187.94Q792.21 186.22 793.40 185.23Q794.58 184.25 796.67 184.25L797.73 184.25Q799.65 184.25 800.86 185.20Q802.07 186.14 802.17 187.68L799.98 187.68Q799.94 186.98 799.32 186.53Q798.71 186.07 797.73 186.07L796.67 186.07Q795.57 186.07 794.94 186.58Q794.32 187.08 794.32 187.94Q794.32 189.34 795.59 189.53L799 190.01Q802.36 190.49 802.36 193.94Q802.36 195.79 801.15 196.81Q799.94 197.83 797.73 197.83" fill="white" fill-opacity="0.7"/>
<path d="M816.76 197.64L812.92 197.64Q811.29 197.64 810.30 196.69Q809.32 195.74 809.32 194.16L809.32 186.41L805.53 186.41L805.53 184.44L809.32 184.44L809.32 180.72L811.48 180.72L811.48 184.44L816.88 184.44L816.88 186.41L811.48 186.41L811.48 194.16Q811.48 194.83 811.88 195.25Q812.27 195.67 812.92 195.67L816.76 195.67" fill="white" fill-opacity="0.7"/>
<path d="M824.85 197.88Q822.81 197.88 821.61 196.74Q820.41 195.60 820.41 193.75Q820.41 192.53 820.96 191.62Q821.51 190.70 822.50 190.19Q823.48 189.67 824.75 189.67L828.83 189.67L828.83 188.64Q828.83 186.07 826.02 186.07Q824.78 186.07 824.01 186.53Q823.24 186.98 823.19 187.80L821.03 187.80Q821.15 186.24 822.48 185.22Q823.82 184.20 826.02 184.20Q828.42 184.20 829.71 185.35Q830.99 186.50 830.99 188.57L830.99 197.64L828.86 197.64L828.86 195.24L828.81 195.24Q828.62 196.46 827.58 197.17Q826.55 197.88 824.85 197.88M825.38 196.06Q826.96 196.06 827.90 195.29Q828.83 194.52 828.83 193.20L828.83 191.35L824.99 191.35Q823.94 191.35 823.28 191.99Q822.62 192.62 822.62 193.68Q822.62 194.78 823.35 195.42Q824.08 196.06 825.38 196.06" fill="white" fill-opacity="0.7"/>
<path d="M837.57 197.64L835.41 197.64L835.41 184.44L837.57 184.44L837.57 186.96L837.59 186.96Q837.76 185.64 838.67 184.92Q839.58 184.20 841.10 184.20Q843.09 184.20 844.26 185.42Q845.44 186.65 845.44 188.76L845.44 197.64L843.28 197.64L843.28 189.14Q843.28 187.63 842.52 186.83Q841.77 186.02 840.47 186.02Q839.13 186.02 838.35 186.86Q837.57 187.70 837.57 189.24" fill="white" fill-opacity="0.7"/>
<path d="M854.03 197.88Q852.06 197.88 850.88 196.56Q849.69 195.24 849.69 192.98L849.69 189.12Q849.69 186.84 850.86 185.52Q852.04 184.20 854.03 184.20Q855.52 184.20 856.49 184.94Q857.46 185.69 857.66 186.96L857.68 186.96L857.63 183.96L857.63 180.12L859.79 180.12L859.79 197.64L857.63 197.64L857.63 195.12L857.61 195.12Q857.44 196.42 856.48 197.15Q855.52 197.88 854.03 197.88M854.75 196.01Q856.10 196.01 856.86 195.17Q857.63 194.33 857.63 192.84L857.63 189.24Q857.63 187.75 856.86 186.91Q856.10 186.07 854.75 186.07Q853.38 186.07 852.62 186.78Q851.85 187.49 851.85 189.12L851.85 192.96Q851.85 194.57 852.62 195.29Q853.38 196.01 854.75 196.01" fill="white" fill-opacity="0.7"/>
<path d="M868.05 197.88Q866.01 197.88 864.81 196.74Q863.61 195.60 863.61 193.75Q863.61 192.53 864.16 191.62Q864.71 190.70 865.70 190.19Q866.68 189.67 867.95 189.67L872.03 189.67L872.03 188.64Q872.03 186.07 869.22 186.07Q867.98 186.07 867.21 186.53Q866.44 186.98 866.39 187.80L864.23 187.80Q864.35 186.24 865.68 185.22Q867.02 184.20 869.22 184.20Q871.62 184.20 872.91 185.35Q874.19 186.50 874.19 188.57L874.19 197.64L872.06 197.64L872.06 195.24L872.01 195.24Q871.82 196.46 870.78 197.17Q869.75 197.88 868.05 197.88M868.58 196.06Q870.16 196.06 871.10 195.29Q872.03 194.52 872.03 193.20L872.03 191.35L868.19 191.35Q867.14 191.35 866.48 191.99Q865.82 192.62 865.82 193.68Q865.82 194.78 866.55 195.42Q867.28 196.06 868.58 196.06" fill="white" fill-opacity="0.7"/>
<path d="M881.25 197.64L879.09 197.64L879.09 184.44L881.25 184.44L881.25 186.96L881.30 186.96Q881.46 185.69 882.38 184.94Q883.29 184.20 884.82 184.20Q886.89 184.20 888 185.44Q889.12 186.67 889.12 188.95L889.12 190.08L886.96 190.08L886.96 188.95Q886.96 186.07 884.15 186.07Q882.74 186.07 881.99 186.89Q881.25 187.70 881.25 189.24" fill="white" fill-opacity="0.7"/>
<path d="M897.23 197.88Q895.26 197.88 894.08 196.56Q892.89 195.24 892.89 192.98L892.89 189.12Q892.89 186.84 894.06 185.52Q895.24 184.20 897.23 184.20Q898.72 184.20 899.69 184.94Q900.66 185.69 900.86 186.96L900.88 186.96L900.83 183.96L900.83 180.12L902.99 180.12L902.99 197.64L900.83 197.64L900.83 195.12L900.81 195.12Q900.64 196.42 899.68 197.15Q898.72 197.88 897.23 197.88M897.95 196.01Q899.30 196.01 900.06 195.17Q900.83 194.33 900.83 192.84L900.83 189.24Q900.83 187.75 900.06 186.91Q899.30 186.07 897.95 186.07Q896.58 186.07 895.82 186.78Q895.05 187.49 895.05 189.12L895.05 192.96Q895.05 194.57 895.82 195.29Q896.58 196.01 897.95 196.01" fill="white" fill-opacity="0.7"/>
<path d="M926.92 197.64L924.76 197.64L924.76 188.21L920.92 188.21L920.92 186.24L924.76 186.24L924.76 183.48Q924.76 181.92 925.74 181.02Q926.73 180.12 928.46 180.12L932.32 180.12L932.32 182.09L928.46 182.09Q926.92 182.09 926.92 183.48L926.92 186.24L932.32 186.24L932.32 188.21L926.92 188.21" fill="white" fill-opacity="0.7"/>
<path d="M941.20 197.83Q938.82 197.83 937.42 196.44Q936.02 195.05 936.02 192.55L936.02 189.53Q936.02 187.01 937.41 185.63Q938.80 184.25 941.20 184.25Q943.60 184.25 944.99 185.63Q946.38 187.01 946.38 189.53L946.38 192.55Q946.38 195.05 944.98 196.44Q943.58 197.83 941.20 197.83M941.20 195.91Q942.62 195.91 943.42 195.12Q944.22 194.33 944.22 192.79L944.22 189.29Q944.22 187.75 943.42 186.96Q942.62 186.17 941.20 186.17Q939.81 186.17 938.99 186.96Q938.18 187.75 938.18 189.29L938.18 192.79Q938.18 194.33 938.99 195.12Q939.81 195.91 941.20 195.91" fill="white" fill-opacity="0.7"/>
<path d="M953.25 197.64L951.09 197.64L951.09 184.44L953.25 184.44L953.25 186.96L953.30 186.96Q953.46 185.69 954.38 184.94Q955.29 184.20 956.82 184.20Q958.89 184.20 960 185.44Q961.12 186.67 961.12 188.95L961.12 190.08L958.96 190.08L958.96 188.95Q958.96 186.07 956.15 186.07Q954.74 186.07 953.99 186.89Q953.25 187.70 953.25 189.24" fill="white" fill-opacity="0.7"/>
<path d="M966.26 197.64L964.24 197.64L964.24 184.44L966.11 184.44L966.11 186.19L966.16 186.19Q966.28 185.30 966.87 184.75Q967.46 184.20 968.37 184.20Q969.23 184.20 969.83 184.70Q970.43 185.21 970.70 186.07L970.72 186.07Q970.89 185.21 971.48 184.70Q972.06 184.20 972.98 184.20Q974.25 184.20 975 185.15Q975.76 186.10 975.76 187.61L975.76 197.64L973.74 197.64L973.74 187.58Q973.74 186.79 973.36 186.32Q972.98 185.86 972.30 185.86Q971.66 185.86 971.27 186.31Q970.89 186.77 970.89 187.56L970.89 197.64L969.11 197.64L969.11 187.58Q969.11 186.79 968.73 186.32Q968.34 185.86 967.70 185.86Q967.02 185.86 966.64 186.31Q966.26 186.77 966.26 187.56" fill="white" fill-opacity="0.7"/>
<path d="M983.25 197.88Q981.21 197.88 980.01 196.74Q978.81 195.60 978.81 193.75Q978.81 192.53 979.36 191.62Q979.91 190.70 980.90 190.19Q981.88 189.67 983.15 189.67L987.23 189.67L987.23 188.64Q987.23 186.07 984.42 186.07Q983.18 186.07 982.41 186.53Q981.64 186.98 981.59 187.80L979.43 187.80Q979.55 186.24 980.88 185.22Q982.22 184.20 984.42 184.20Q986.82 184.20 988.11 185.35Q989.39 186.50 989.39 188.57L989.39 197.64L987.26 197.64L987.26 195.24L987.21 195.24Q987.02 196.46 985.98 197.17Q984.95 197.88 983.25 197.88M983.78 196.06Q985.36 196.06 986.30 195.29Q987.23 194.52 987.23 193.20L987.23 191.35L983.39 191.35Q982.34 191.35 981.68 191.99Q981.02 192.62 981.02 193.68Q981.02 194.78 981.75 195.42Q982.48 196.06 983.78 196.06" fill="white" fill-opacity="0.7"/>
<path d="M1003.96 197.64L1000.12 197.64Q998.49 197.64 997.50 196.69Q996.52 195.74 996.52 194.16L996.52 186.41L992.73 186.41L992.73 184.44L996.52 184.44L996.52 180.72L998.68 180.72L998.68 184.44L1004.08 184.44L1004.08 186.41L998.68 186.41L998.68 194.16Q998.68 194.83 999.08 195.25Q999.47 195.67 1000.12 195.67L1003.96 195.67" fill="white" fill-opacity="0.7"/>
<path d="M1013.73 197.83L1012.67 197.83Q1010.46 197.83 1009.25 196.84Q1008.04 195.84 1008.04 194.02L1010.20 194.02Q1010.20 194.93 1010.85 195.44Q1011.50 195.96 1012.67 195.96L1013.73 195.96Q1014.93 195.96 1015.59 195.43Q1016.25 194.90 1016.25 193.94Q1016.25 192.24 1014.69 192.02L1011.04 191.50Q1009.70 191.30 1008.95 190.38Q1008.21 189.46 1008.21 187.94Q1008.21 186.22 1009.40 185.23Q1010.58 184.25 1012.67 184.25L1013.73 184.25Q1015.65 184.25 1016.86 185.20Q1018.07 186.14 1018.17 187.68L1015.98 187.68Q1015.94 186.98 1015.32 186.53Q1014.71 186.07 1013.73 186.07L1012.67 186.07Q1011.57 186.07 1010.94 186.58Q1010.32 187.08 1010.32 187.94Q1010.32 189.34 1011.59 189.53L1015 190.01Q1018.36 190.49 1018.36 193.94Q1018.36 195.79 1017.15 196.81Q1015.94 197.83 1013.73 197.83" fill="white" fill-opacity="0.7"/>
<path d="M1027.60 197.88Q1026.71 197.88 1026.17 197.35Q1025.63 196.82 1025.63 195.98Q1025.63 195.10 1026.17 194.54Q1026.71 193.99 1027.60 193.99Q1028.49 193.99 1029.03 194.54Q1029.57 195.10 1029.57 195.98Q1029.57 196.82 1029.03 197.35Q1028.49 197.88 1027.60 197.88" fill="white" fill-opacity="0.7"/>
<path d="M80.24 136.06L70.74 136.06L70.74 65.98L112.59 65.98L112.59 74.72L80.05 74.72L80.05 96.80L110.10 96.80L110.10 105.44L80.24 105.44L80.24 136.06M148.40 137.02Q138.51 137.02 133.18 131.55Q127.86 126.08 127.86 116.67L127.86 65.98L137.36 65.98L137.36 116.67Q137.36 122.24 140.10 125.40Q142.83 128.57 148.40 128.57Q153.87 128.57 156.70 125.40Q159.54 122.24 159.54 116.67L159.54 65.98L169.04 65.98L169.04 116.67Q169.04 126.17 163.71 131.60Q158.38 137.02 148.40 137.02M194.38 136.06L185.46 136.06L185.46 65.98L197.74 65.98L218.67 125.12Q218.38 122.62 218.14 118.92Q217.90 115.23 217.76 111.24Q217.62 107.26 217.62 103.71L217.62 65.98L226.64 65.98L226.64 136.06L214.26 136.06L193.52 76.92Q193.71 79.42 193.90 83.02Q194.10 86.62 194.24 90.56Q194.38 94.49 194.38 97.95L194.38 136.06M263.98 137.02Q254.29 137.02 248.58 131.60Q242.86 126.17 242.86 116.67L242.86 85.28Q242.86 75.87 248.58 70.44Q254.29 65.02 263.98 65.02Q273.58 65.02 279.30 70.49Q285.01 75.96 285.01 85.28L275.50 85.28Q275.50 79.61 272.43 76.54Q269.36 73.47 263.98 73.47Q258.51 73.47 255.44 76.54Q252.37 79.61 252.37 85.28L252.37 116.67Q252.37 122.43 255.44 125.50Q258.51 128.57 263.98 128.57Q269.36 128.57 272.43 125.50Q275.50 122.43 275.50 116.67L275.50 107.55L261.87 107.55L261.87 99.10L285.01 99.10L285.01 116.67Q285.01 126.08 279.30 131.55Q273.58 137.02 263.98 137.02M342.51 136.06L301.71 136.06L301.71 65.98L342.51 65.98L342.51 74.52L311.12 74.52L311.12 95.36L339.15 95.36L339.15 103.61L311.12 103.61L311.12 127.52L342.51 127.52L342.51 136.06M367.18 136.06L358.26 136.06L358.26 65.98L370.54 65.98L391.47 125.12Q391.18 122.62 390.94 118.92Q390.70 115.23 390.56 111.24Q390.42 107.26 390.42 103.71L390.42 65.98L399.44 65.98L399.44 136.06L387.06 136.06L366.32 76.92Q366.51 79.42 366.70 83.02Q366.90 86.62 367.04 90.56Q367.18 94.49 367.18 97.95L367.18 136.06M457.71 136.06L416.91 136.06L416.91 65.98L457.71 65.98L457.71 74.52L426.32 74.52L426.32 95.36L454.35 95.36L454.35 103.61L426.32 103.61L426.32 127.52L457.71 127.52L457.71 136.06M483.15 136.06L473.74 136.06L473.74 65.98L495.44 65.98Q501.87 65.98 506.67 68.52Q511.47 71.07 514.16 75.63Q516.85 80.19 516.85 86.33Q516.85 93.44 513.25 98.52Q509.65 103.61 503.70 105.72L517.81 136.06L507.34 136.06LNaN 106.78L483.15 106.78L483.15 136.06M483.15 74.43L483.15 98.33L495.44 98.33Q500.82 98.33 503.94 95.07Q507.06 91.80 507.06 86.43Q507.06 80.96 503.89 77.69Q500.72 74.43 495.44 74.43L483.15 74.43M536.91 136.06L527.22 136.06L545.36 65.98L557.94 65.98L575.98 136.06L566.29 136.06L561.87 117.82L541.33 117.82L536.91 136.06M548.34 88.92L543.25 109.95L559.95 109.95L554.96 89.02Q553.52 83.26 552.66 79.23Q551.79 75.20 551.60 73.76Q551.41 75.20 550.54 79.23Q549.68 83.26 548.34 88.92MNaN 136.06L604.50 136.06L604.50 74.62L585.49 74.62L585.49 65.98L632.91 65.98L632.91 74.62LNaN 74.62LNaN 136.06M666.80 137.02Q657.20 137.02 651.63 131.45Q646.06 125.88 646.06 115.71L646.06 86.24Q646.06 76.16 651.63 70.59Q657.20 65.02 666.80 65.02Q676.40 65.02 681.97 70.54Q687.54 76.06 687.54 86.24L687.54 115.71Q687.54 125.88 681.97 131.45Q676.40 137.02 666.80 137.02M666.80 128.57Q672.18 128.57 675.10 125.50Q678.03 122.43 678.03 116.67L678.03 85.28Q678.03 79.61 675.15 76.54Q672.27 73.47 666.80 73.47Q661.33 73.47 658.45 76.54Q655.57 79.61 655.57 85.28L655.57 116.67Q655.57 122.43 658.50 125.50Q661.42 128.57 666.80 128.57M713.55 136.06L704.14 136.06L704.14 65.98L725.84 65.98Q732.27 65.98 737.07 68.52Q741.87 71.07 744.56 75.63Q747.25 80.19 747.25 86.33Q747.25 93.44 743.65 98.52Q740.05 103.61 734.10 105.72L748.21 136.06L737.74 136.06L724.40 106.78L713.55 106.78L713.55 136.06M713.55 74.43L713.55 98.33L725.84 98.33Q731.22 98.33 734.34 95.07Q737.46 91.80 737.46 86.43Q737.46 80.96 734.29 77.69Q731.12 74.43 725.84 74.43L713.55 74.43M782.38 137.02Q772.02 137.02 765.87 131.60Q759.73 126.17 759.73 116.67L769.23 116.67Q769.23 122.24 772.78 125.40Q776.34 128.57 782.38 128.57Q788.14 128.57 791.55 125.36Q794.96 122.14 794.96 116.76Q794.96 112.73 792.75 109.71Q790.54 106.68 786.51 105.63L776.14 102.84Q769.33 100.92 765.34 95.88Q761.36 90.84 761.36 83.93Q761.36 78.27 763.90 74Q766.45 69.72 771.06 67.37Q775.66 65.02 781.71 65.02Q787.86 65.02 792.51 67.37Q797.17 69.72 799.76 73.95Q802.35 78.17 802.35 83.74L792.94 83.74Q792.94 79.13 789.82 76.25Q786.70 73.37 781.71 73.37Q776.72 73.37 773.70 76.25Q770.67 79.13 770.67 83.74Q770.67 87.48 772.69 90.03Q774.70 92.57 778.35 93.63L789.01 96.51Q796.21 98.43 800.24 103.85Q804.27 109.28 804.27 116.76Q804.27 122.91 801.58 127.47Q798.90 132.03 793.95 134.52Q789.01 137.02 782.38 137.02M898.54 136.06L876.94 136.06L876.94 65.98L897.20 65.98Q906.90 65.98 912.51 70.83Q918.13 75.68 918.13 84.12Q918.13 89.60 914.72 93.87Q911.31 98.14 905.94 99.10L905.94 99.39Q909.97 99.87 913.09 102.27Q916.21 104.67 917.98 108.36Q919.76 112.06 919.76 116.48Q919.76 125.50 914.05 130.78Q908.34 136.06 898.54 136.06M886.26 74.33L886.26 95.55L897.10 95.55Q902.48 95.55 905.55 92.72Q908.62 89.88 908.62 84.99Q908.62 80 905.55 77.16Q902.48 74.33 897.20 74.33L886.26 74.33M886.26 103.61L886.26 127.71L897.68 127.71Q903.54 127.71 906.90 124.59Q910.26 121.47 910.26 116.09Q910.26 110.52 906.90 107.07Q903.54 103.61 897.68 103.61L886.26 103.61M940.11 136.06L930.42 136.06L948.56 65.98L961.14 65.98L979.18 136.06L969.49 136.06L965.07 117.82L944.53 117.82L940.11 136.06M951.54 88.92L946.45 109.95L963.15 109.95L958.16 89.02Q956.72 83.26 955.86 79.23Q954.99 75.20 954.80 73.76Q954.61 75.20 953.74 79.23Q952.88 83.26 951.54 88.92M1001.55 136.06L992.14 136.06L992.14 65.98L1013.84 65.98Q1020.27 65.98 1025.07 68.52Q1029.87 71.07 1032.56 75.63Q1035.25 80.19 1035.25 86.33Q1035.25 93.44 1031.65 98.52Q1028.05 103.61 1022.10 105.72L1036.21 136.06L1025.74 136.06L1012.40 106.78L1001.55 106.78L1001.55 136.06M1001.55 74.43L1001.55 98.33L1013.84 98.33Q1019.22 98.33 1022.34 95.07Q1025.46 91.80 1025.46 86.43Q1025.46 80.96 1022.29 77.69Q1019.12 74.43 1013.84 74.43L1001.55 74.43M1070.77 137.02Q1061.07 137.02 1055.36 131.60Q1049.65 126.17 1049.65 116.67L1049.65 85.28Q1049.65 75.87 1055.36 70.44Q1061.07 65.02 1070.77 65.02Q1080.37 65.02 1086.08 70.49Q1091.79 75.96 1091.79 85.28L1082.29 85.28Q1082.29 79.61 1079.22 76.54Q1076.14 73.47 1070.77 73.47Q1065.30 73.47 1062.22 76.54Q1059.15 79.61 1059.15 85.28L1059.15 116.67Q1059.15 122.43 1062.22 125.50Q1065.30 128.57 1070.77 128.57Q1076.14 128.57 1079.22 125.50Q1082.29 122.43 1082.29 116.67L1091.79 116.67Q1091.79 126.08 1086.08 131.55Q1080.37 137.02 1070.77 137.02M1127.60 137.02QNaN 137.02 1112.43 131.45Q1106.86 125.88 1106.86 115.71L1106.86 86.24Q1106.86 76.16 1112.43 70.59QNaN 65.02 1127.60 65.02Q1137.20 65.02 1142.77 70.54Q1148.34 76.06 1148.34 86.24L1148.34 115.71Q1148.34 125.88 1142.77 131.45Q1137.20 137.02 1127.60 137.02M1127.60 128.57Q1132.98 128.57 1135.90 125.50Q1138.83 122.43 1138.83 116.67L1138.83 85.28Q1138.83 79.61 1135.95 76.54Q1133.07 73.47 1127.60 73.47Q1122.13 73.47 1119.25 76.54Q1116.37 79.61 1116.37 85.28L1116.37 116.67Q1116.37 122.43 1119.30 125.50Q1122.22 128.57 1127.60 128.57M1183.66 136.06L1164.85 136.06L1164.85 65.98L1183.66 65.98Q1190.48 65.98 1195.52 68.62Q1200.56 71.26 1203.34 76.01Q1206.13 80.76 1206.13 87.20L1206.13 114.75Q1206.13 121.18 1203.34 125.98Q1200.56 130.78 1195.52 133.42Q1190.48 136.06 1183.66 136.06M1174.35 74.43L1174.35 127.61L1183.66 127.61Q1189.71 127.61 1193.17 124.16Q1196.62 120.70 1196.62 114.75L1196.62 87.20Q1196.62 81.24 1193.17 77.84Q1189.71 74.43 1183.66 74.43L1174.35 74.43M1264.11 136.06L1223.31 136.06L1223.31 65.98L1264.11 65.98L1264.11 74.52L1232.72 74.52L1232.72 95.36L1260.75 95.36L1260.75 103.61L1232.72 103.61L1232.72 127.52L1264.11 127.52" fill="url(#paint2_linear_0_1)"/>
<g id="Group 1">
<rect id="Rectangle 1" x="26" y="168" width="12" height="184" rx="5" fill="url(#paint3_linear_0_1)" fill-opacity="0.9"/>
</g>
<g id="Group 1_2">
<rect id="Rectangle 2" x="26" y="38" width="12" height="119" rx="5" fill="url(#paint4_linear_0_1)" fill-opacity="0.9"/>
</g>
<ellipse id="Ellipse 1" cx="148.5" cy="573" rx="215.5" ry="214" fill="url(#paint5_linear_0_1)" fill-opacity="0.4"/>
<rect id="Rectangle 3" x="1229" y="48" width="300" height="300" rx="25" fill="#FFFBFB" fill-opacity="0.9"/>
<g id="placeholder-logo"><g transform="translate(1229,48) translate(0.0,60.0) scale(1.2000)"><g fill="#666666">
  <path d="m88.05,27.65c-3.15,4 -3.2,51.2 -0.05,54.35c2.75,2.75 71.7,3.15 74.45,0.45c2.85,-2.9 2.3,-53.85 -0.65,-55.9c-1.95,-1.35 -7.15,-1.55 -36.95,-1.55l-34.7,0l-2.1,2.65zm69.45,3.35c0.65,0 1,8.6 1,23.75l0,23.75l-33,0l-33,0l-0.25,-23c-0.15,-12.6 -0.1,-23.45 0.15,-24.1c0.35,-0.85 8.9,-1.05 32.25,-0.75c17.55,0.2 32.3,0.35 32.85,0.35z"/>
  <path d="m99.15,37.3c-6.85,7.35 4.25,17.35 11.4,10.25c1.35,-1.35 2.45,-3.65 2.45,-5.05c0,-6.45 -9.35,-9.95 -13.85,-5.2z"/>
  <path d="m135,42.5c-0.7,0.85 -5.25,5.15 -10.1,9.6l-8.85,8.1l-3.2,-3.2l-3.15,-3.15l-6.35,6.3c-5.55,5.5 -6.35,6.75 -6.35,10.05l0,3.8l28.5,0l28.5,0l0,-8.6l0,-8.55l-8.15,-7.7c-9.35,-8.85 -9.15,-8.7 -10.85,-6.65zm7.25,15.2c0.95,0.9 1.75,2.9 1.75,4.45c6.35,-5.05 4.75,-7.15 4.9,-11.55c0.95,0 0,0 0,0l-6.65,7.1z"/>
  <path d="m53.65,110.75c0.1,4.8 0.45,8.65 0.75,8.5c0.35,-0.15 1.3,-0.25 2.1,-0.25c1.1,0 1.5,-1.2 1.5,-4.75l0,-4.75l3.25,5c4.9,7.5 6.2,6.75 6.55,-3.75c0.25,-8.15 0.15,-8.75 -1.7,-8.75c-1.65,0 -2.05,0.8 -2.3,4.75l-0.3,4.75l-2.8,-4.75c-4.85,-8.25 -7.25,-6.9 -7.05,4z"/>
  <path d="m91,108.9c0,9.65 0.3,10.1 6.1,10.1c5.8,0 7.15,-2.65 1.65,-3.2l-3.25,-0.3l-0.3,-6.75c-0.25,-5.95 -0.55,-6.75 -2.25,-6.75c-1.75,0 -1.95,0.7 -1.95,6.9z"/>
  <path d="m151,102.45c0,0.25 1,2.15 2.25,4.2c1.2,2.1 2.45,5.8 2.75,8.25c0.65,5.9 4,6.95 4,1.25c0.05,-2.1 1.25,-5.85 2.95,-8.9l2.9,-5.25l-2.5,0c-1.8,0 -2.8,0.85 -3.75,3.1l-1.3,3.05l-1.25,-3.05c-1.1,-2.6 -6.05,-4.8 -6.05,-2.65z"/>
  <path d="m191,107.45c0,9.05 3.4,8.85 4.25,-0.2c0.45,-5 0.35,-5.25 -1.9,-5.25c-2.2,0 -2.35,0.4 -2.35,5.45z"/>
  <path d="m180.8,104.75c-1.3,5.35 0.65,13.6 3.45,14.35c2.3,0.6 2.75,0.4 2.75,-1.2c0,-1.05 -0.45,-1.9 -1,-1.9c-0.55,0 -1,-1.6 -1,-3.5c0,-1.95 0.45,-3.5 1,-3.5c0.55,0 1,-0.7 1,-1.5c0,-0.85 -0.45,-1.5 -1,-1.5c-0.55,0 -1,-0.7 -1,-1.5c0,-2.1 -3.65,-1.9 -4.2,0.25z"/>
  <path d="m71.55,106.55c-2.2,2.25 -2.05,9.7 0.3,11.8c4.5,4.1 10.15,0.75 10.15,-6.1c0,-4.85 -2,-7.25 -6,-7.25c-1.55,0 -3.55,0.7 -4.45,1.55zm6.25,5.8c0.25,3.05 0,3.65 -1.6,3.65c-2.3,0 -3.25,-2.65 -2.05,-5.85c1.25,-3.35 3.3,-2.1 3.65,2.2z"/>
  <path d="m105.75,106.1c-2.5,1.45 -2.45,9.95 0.1,12.25c4.3,3.9 10.15,0.35 10.15,-6.2c0,-6 -5.15,-9.05 -10.25,-6.05zm6.05,6.25c0.25,3.05 0,3.65 -1.6,3.65c-2.3,0 -3.25,-2.65 -2.05,-5.85c1.25,-3.35 3.3,-2.1 3.65,2.2z"/>
  <path d="m119.2,106.2c-3.8,3.8 -0.4,12.55 4.4,11.35c1.9,-0.45 2.45,-0.3 2.15,0.65c-0.25,0.7 -1.55,1.2 -2.85,1.1c-4.05,-0.3 -5.35,0.45 -3.85,2.25c0.85,1.05 2.6,1.45 5.35,1.25l4.1,-0.3l0.3,-8.75l0.3,-8.75l-4.35,0c-2.4,0 -4.9,0.55 -5.55,1.2zm6.6,4.45c0.4,2.85 -2.15,4.85 -3.75,2.95c-0.9,-1.1 -0.9,-2 -0.05,-3.6c1.35,-2.5 3.4,-2.15 3.8,0.65z"/>
  <path d="m133.55,106.55c-2.2,2.25 -2.05,9.7 0.3,11.8c4.5,4.1 10.15,0.75 10.15,-6.1c0,-4.85 -2,-7.25 -6,-7.25c-1.55,0 -3.55,0.7 -4.45,1.55zm6.25,5.8c0.25,3.05 0,3.65 -1.6,3.65c-2.3,0 -3.25,-2.65 -2.05,-5.85c1.25,-3.35 3.3,-2.1 3.65,2.2z"/>
  <path d="m167.65,106.85c-3.9,4.3 -0.75,13.15 4.7,13.15c2.4,0 5.65,-2.75 5.65,-4.85c0,-1.4 -2.65,-1.55 -3.5,-0.15c-0.95,1.55 -4.5,1.15 -4.5,-0.5c0,-1.1 1.1,-1.5 4,-1.5c3.15,0 4,-0.35 4,-1.8c0,-5.3 -6.85,-8.25 -10.35,-4.35z"/>
  <path d="m191,117.5c0,2.15 0.4,2.6 2.25,2.3c1.5,-0.2 2.25,-1 2.25,-2.3c0,-1.3 -0.75,-2.1 -2.25,-2.3c-1.85,-0.3 -2.25,0.15 -2.25,2.3z"/>
 </g></g></g>
</g>
<defs>
<linearGradient id="paint0_linear_0_1" x1="0" y1="198" x2="1584" y2="198" gradientUnits="userSpaceOnUse">
<stop stop-color="#3D052C"/>
<stop offset="1"/>
</linearGradient>
<linearGradient id="paint1_linear_0_1" x1="323" y1="-224" x2="323" y2="352" gradientUnits="userSpaceOnUse">
<stop stop-color="#28F6F2" stop-opacity="0.4"/>
<stop offset="1" stop-color="#17908E" stop-opacity="0.7"/>
</linearGradient>
<linearGradient id="paint2_linear_0_1" x1="148.5" y1="38" x2="148.5" y2="140" gradientUnits="userSpaceOnUse">
<stop stop-color="white"/>
<stop offset="1" stop-color="#999999"/>
</linearGradient>
<linearGradient id="paint3_linear_0_1" x1="38" y1="260" x2="26" y2="260" gradientUnits="userSpaceOnUse">
<stop stop-color="#D9D9D9"/>
<stop offset="1" stop-color="#737373"/>
</linearGradient>
<linearGradient id="paint4_linear_0_1" x1="38" y1="97.5" x2="26" y2="97.5" gradientUnits="userSpaceOnUse">
<stop stop-color="#D9D9D9"/>
<stop offset="1" stop-color="#737373"/>
</linearGradient>
<linearGradient id="paint5_linear_0_1" x1="27.5" y1="434.5" x2="148.5" y2="787" gradientUnits="userSpaceOnUse">
<stop stop-color="#2E21BC"/>
<stop offset="1" stop-color="#150F56"/>
</linearGradient>
<clipPath id="clip0_0_1">
<rect width="1584" height="396" fill="white"/>
</clipPath>
</defs>
</svg>
